<svg version="1.2" xmlns="http://www.w3.org/2000/svg" viewBox="0 0 964 964" width="1000" height="1000">
	<title>IMG_0212</title>
	<style>
		.s0 { fill: #f5abb9 } 
		.s1 { fill: #5bcffa } 
	</style>
	<g id="Background">
		<path id="Path 0" class="s0" d="m191.6 143.8c-0.2 0.4-1.8 6.1-3.4 12.7-1.7 6.6-3.7 15.6-4.6 20-0.8 4.4-2.5 14.6-3.6 22.7-1.5 11.3-2 20.2-2 37.3 0 14.5 0.5 26.7 1.5 34.2 0.9 6.5 2.7 17 4.2 23.3 1.4 6.3 4.3 16.7 6.5 23 2.2 6.3 6.6 16.7 9.8 23 3.2 6.3 8.1 14.9 10.8 19 2.6 4.1 8.2 11.6 12.4 16.5 4.1 4.9 10.8 12.2 14.9 16 4.1 3.9 10.1 9.1 13.4 11.6 3.3 2.5 9.4 6.8 13.5 9.6 4.1 2.7 12.2 7.5 18 10.6 5.8 3.1 15.1 7.4 20.8 9.6 5.6 2.3 14.4 5.4 19.5 7 5 1.7 13.7 4.1 19.2 5.5 5.5 1.4 13.4 3.2 17.5 4.1 4.1 0.9 12.2 2.2 18 3.1 5.8 0.8 17.7 2.1 26.5 2.9 8.8 0.8 22 1.5 29.3 1.5 11.3 0 13.1-0.2 12.7-1.5-0.3-0.8-1.5-1.5-2.7-1.5-1.3 0-6.6-0.7-11.8-1.6-5.2-0.9-15.6-3.2-23-5.1-7.4-1.9-17.8-4.9-23-6.7-5.2-1.9-13.8-5.2-19-7.6-5.2-2.3-14.2-6.8-20-10.1-5.8-3.3-14.6-8.9-19.5-12.4-4.9-3.5-13.2-10.4-18.4-15.2-5.2-4.8-12.8-12.9-17-17.8-4.1-4.9-10.6-13.7-14.4-19.5-3.8-5.8-9.7-16.4-13.2-23.5-3.4-7.1-7.9-17.3-9.8-22.5-2-5.2-4.9-14.2-6.6-20-1.7-5.8-4.2-16.4-5.6-23.5-1.4-7.1-2.5-13.1-2.3-13.3 0.2-0.2 5.9 0.2 12.8 0.8 6.9 0.6 19.3 2.5 27.5 4.1 8.3 1.7 21.6 5.3 29.8 8 8.1 2.7 19.3 7.1 24.9 9.8 5.7 2.7 15 7.8 20.8 11.3 5.8 3.4 14.6 9.4 19.5 13.2 5 3.9 13.4 11.3 18.9 16.5 5.4 5.3 13.3 13.9 17.5 19.1 4.2 5.2 10.1 13.3 13.2 18 3.1 4.7 7.9 12.9 10.7 18.2 3.8 7.1 4.8 9.8 3.7 9.8-0.8 0-6.6-1.3-12.7-2.9-6.2-1.6-16.7-4.8-23.3-7.2-6.6-2.3-16.9-6.3-23-9-6.1-2.6-15.1-7-20-9.7-4.9-2.7-12.8-7.3-17.5-10.2-4.7-2.9-12.6-8.3-17.5-12-4.9-3.7-12-9.5-15.7-12.9-3.8-3.3-7.2-6.1-7.8-6.1-0.6 0-1 0.9-1 2 0 1.1 1.7 5.3 3.8 9.2 2 4 5.9 10.4 8.7 14.3 2.7 3.9 10.5 12.8 17.4 19.9 7 7 16.9 16 22.1 20 5.2 3.9 13.6 9.7 18.5 12.7 4.9 3.1 13.1 7.7 18 10.1 4.9 2.5 13.3 6.4 18.5 8.6 5.2 2.2 14.7 5.6 21 7.6 6.3 2 16.7 4.8 23 6.1 6.3 1.4 12.4 2.8 13.5 3 1.6 0.4 2.5-0.6 4.9-5.7 1.8-3.8 3.4-9.9 4.2-15.3 0.8-4.9 1.4-13.7 1.4-19.5-0.1-5.8-0.5-13.8-1-17.8-0.6-3.9-2.4-11.1-4.1-16-1.7-4.8-5.4-13.6-8.3-19.7-2.8-6.1-8.3-15.7-12.1-21.4-3.9-5.8-10.7-14.6-15.1-19.5-4.5-5-11-11.6-14.5-14.6-3.5-3-8.4-7.1-10.9-9.1-2.5-1.9-9-6.3-14.5-9.8-5.5-3.5-16.3-9.4-24-13.1-7.7-3.7-19.4-8.9-26-11.5-6.6-2.6-23-8.7-36.5-13.5-13.5-4.8-30.4-11.1-37.5-14-7.1-2.9-17.5-7.8-23-10.8-5.5-3-12.9-7.4-16.5-9.7-3.6-2.4-9.5-6.9-13.2-9.9-3.8-3.1-9-8.4-11.8-11.9-2.7-3.4-6.7-9.7-8.8-14-2.2-4.2-4.5-7.7-5-7.7-0.6 0-1.3 0.3-1.6 0.7zm325.9 364.8c0.3 0.8 1.5 1.5 2.8 1.5 1.2 0 6.5 0.7 11.7 1.6 5.2 0.9 15.6 3.2 23 5.1 7.4 1.9 17.8 4.9 23 6.7 5.2 1.9 13.8 5.2 19 7.6 5.2 2.3 14.4 6.9 20.4 10.3 6 3.4 15.9 9.9 22 14.5 6.1 4.6 14.2 11.3 18 15 3.7 3.7 10.2 10.7 14.4 15.7 4.2 5 10.7 13.7 14.5 19.5 3.8 5.8 9.7 16.4 13.2 23.5 3.4 7.1 7.9 17.3 9.8 22.5 2 5.2 4.9 14.2 6.6 20 1.7 5.8 4.2 16.4 5.6 23.5 1.4 7.1 2.5 13.1 2.3 13.3-0.2 0.2-5.9-0.2-12.8-0.8-6.9-0.6-19.2-2.5-27.5-4.1-8.2-1.7-21.6-5.3-29.7-8-8.2-2.7-19.4-7.1-25-9.8-5.7-2.7-14.8-7.6-20.3-10.9-5.5-3.3-14.7-9.6-20.5-14.1-5.8-4.5-14.5-12.1-19.4-16.9-4.8-4.8-12.3-13-16.5-18.2-4.2-5.2-10.1-13.3-13.2-18-3.1-4.7-7.9-12.9-10.7-18.3-3.8-7-4.8-9.7-3.7-9.7 0.8 0 6.6 1.3 12.8 2.9 6.1 1.6 15.9 4.6 21.7 6.6 5.8 2 15.9 5.9 22.5 8.7 6.6 2.8 16.5 7.6 22 10.6 5.5 3.1 13.6 7.8 18 10.5 4.4 2.8 13.2 9 19.5 13.8 6.3 4.8 13.3 10.6 15.5 12.8 2.2 2.3 4.6 4.1 5.3 4.1 0.6 0 1.2-0.9 1.2-2 0-1.1-1.7-5.3-3.8-9.3-2-3.9-5.9-10.3-8.7-14.2-2.7-3.9-10.3-12.6-16.9-19.4-6.7-6.8-15.7-15.1-20.1-18.6-4.4-3.4-11.8-8.7-16.5-11.8-4.7-3-12.8-7.8-18-10.5-5.2-2.8-14.2-7.2-20-9.7-5.8-2.5-15.9-6.3-22.5-8.4-6.6-2.1-17.4-5.1-24-6.5-6.6-1.5-12.9-2.9-14-3.1-1.6-0.4-2.5 0.6-4.9 5.7-1.8 3.8-3.4 9.9-4.2 15.3-0.8 5-1.4 13.7-1.4 19.5 0.1 5.8 0.5 13.8 1 17.7 0.6 4 2.4 11.2 4.1 16 1.7 4.9 5.4 13.8 8.3 19.8 2.8 6 8.3 15.7 12.1 21.4 3.9 5.8 10.4 14.3 14.6 19 4.2 4.7 10.7 11.3 14.5 14.6 3.8 3.3 8.9 7.6 11.4 9.6 2.5 1.9 9 6.4 14.5 9.8 5.5 3.5 16.3 9.4 24 13.1 7.7 3.7 19.4 8.9 26 11.5 6.6 2.6 23 8.7 36.5 13.5 13.5 4.8 29.7 10.9 36 13.5 6.3 2.6 16.2 7.1 22 10 5.8 3 13.9 7.7 18 10.4 4.1 2.7 10.5 7.5 14.3 10.5 3.7 3.1 8.9 8.4 11.7 11.8 2.7 3.5 6.8 9.8 9.2 14 2.4 4.3 4.8 7.6 5.3 7.4 0.5-0.1 1.8-3.2 2.7-6.7 1-3.5 3-11.6 4.4-17.9 1.4-6.3 3.6-19.1 5-28.5 1.9-13.9 2.4-21.1 2.4-39.8 0-14.7-0.5-26.8-1.5-34.5-0.9-6.4-2.7-16.9-4.2-23.2-1.4-6.3-4.3-16.7-6.5-23-2.2-6.3-6.6-16.7-9.8-23-3.2-6.3-8.1-14.9-10.8-19-2.6-4.1-8.2-11.5-12.4-16.5-4.1-5-10.8-12.2-14.9-16-4.1-3.9-10.1-9.2-13.4-11.7-3.3-2.5-9.8-7-14.5-10.1-4.7-3-12.8-7.8-18-10.5-5.2-2.8-14.1-6.9-19.7-9.1-5.7-2.3-14.5-5.4-19.5-7-5.1-1.7-13.1-3.9-17.8-5.1-4.7-1.2-12.8-3.1-18-4.1-5.2-1.1-14-2.7-19.5-3.5-5.5-0.8-17.2-2.1-26-2.9-8.8-0.8-21.9-1.5-29.2-1.5-11.3 0-13.1 0.2-12.8 1.5z"/>
		<path id="Path 1" class="s1" d="m693.5 179.5c-6 0.8-15.5 2.4-21 3.5-5.5 1.2-15.9 4.1-23 6.4-7.1 2.4-18.4 7-25 10.4-6.6 3.3-15.4 8.3-19.5 11-4.1 2.6-11.5 8.2-16.5 12.4-5 4.1-12.2 10.8-16 14.9-3.9 4.1-9.2 10.1-11.7 13.4-2.5 3.3-7 9.8-10.1 14.5-3 4.7-7.8 12.8-10.5 18-2.8 5.2-6.9 14.1-9.1 19.8-2.3 5.6-5.4 14.4-7 19.4-1.7 5.1-3.9 13.1-5.1 17.8-1.2 4.7-3.1 12.8-4.1 18-1.1 5.2-2.7 14-3.5 19.5-0.8 5.5-2.1 17.2-2.9 26-0.8 8.8-1.5 22-1.5 29.3 0 11.3 0.2 13.1 1.5 12.7 0.8-0.3 1.5-1.5 1.5-2.8 0-1.2 0.7-6.5 1.6-11.7 0.9-5.2 3.2-15.6 5.1-23 1.9-7.4 4.9-17.8 6.7-23 1.9-5.2 5.2-13.8 7.6-19 2.3-5.2 6.8-14.2 10.1-20 3.3-5.8 8.9-14.6 12.4-19.5 3.5-4.9 10.4-13.2 15.2-18.4 4.8-5.2 12.8-12.8 17.8-17 5-4.1 13.7-10.6 19.5-14.4 5.8-3.8 16.4-9.7 23.5-13.2 7.1-3.4 17.3-7.9 22.5-9.8 5.2-2 14.2-4.9 20-6.6 5.8-1.7 16.4-4.2 23.5-5.6 7.1-1.4 13.1-2.5 13.3-2.3 0.2 0.2-0.2 5.9-0.8 12.8-0.6 6.9-2.5 19.2-4.1 27.5-1.7 8.2-5.3 21.6-8 29.7-2.7 8.2-7.1 19.4-9.8 25-2.7 5.7-7.6 14.8-10.9 20.3-3.3 5.5-9.6 14.7-14.1 20.5-4.5 5.8-12.1 14.5-16.9 19.4-4.8 4.8-13 12.3-18.2 16.5-5.2 4.2-13.3 10.1-18 13.2-4.7 3.1-12.9 7.9-18.3 10.7-7 3.8-9.7 4.8-9.7 3.7 0-0.8 1.3-6.6 2.9-12.8 1.6-6.1 4.8-16.6 7.2-23.2 2.3-6.6 6.3-16.9 8.9-23 2.7-6.1 7.8-16.4 11.5-23 3.7-6.6 9.3-15.8 12.4-20.5 3.1-4.7 8.2-11.9 11.5-16 3.2-4.1 8.1-9.9 10.8-12.8 2.6-2.8 4.8-5.6 4.8-6.2 0-0.6-0.9-1-2-1-1.1 0-5.3 1.7-9.3 3.8-3.9 2-10.3 5.9-14.2 8.7-3.9 2.7-12.6 10.3-19.4 16.9-6.8 6.7-15.1 15.7-18.6 20.1-3.4 4.4-8.7 11.8-11.8 16.5-3 4.7-7.8 12.8-10.5 18-2.8 5.2-7.2 14.2-9.7 20-2.5 5.8-6.3 15.9-8.4 22.5-2.1 6.6-5.1 17.4-6.5 24-1.5 6.6-2.9 12.9-3.1 14-0.4 1.6 0.6 2.5 5.7 4.9 3.8 1.8 9.9 3.4 15.3 4.2 5 0.8 13.7 1.4 19.5 1.4 5.8-0.1 13.8-0.5 17.7-1 4-0.6 11.2-2.4 16-4.1 4.9-1.7 13.8-5.4 19.8-8.3 6-2.8 15.7-8.3 21.4-12.1 5.8-3.9 14.3-10.4 19-14.6 4.7-4.2 11.3-10.7 14.6-14.5 3.3-3.8 7.6-8.9 9.6-11.4 1.9-2.5 6.4-9 9.8-14.5 3.5-5.5 9.4-16.3 13.1-24 3.7-7.7 8.9-19.4 11.5-26 2.6-6.6 8.7-23 13.5-36.5 4.8-13.5 10.9-29.7 13.5-36 2.6-6.3 7.1-16.2 10-22 3-5.8 7.7-13.9 10.4-18 2.7-4.1 7.5-10.5 10.5-14.3 3.1-3.7 8.4-8.9 11.8-11.7 3.5-2.7 9.8-6.8 14-9.2 4.3-2.4 7.6-4.7 7.4-5.3-0.1-0.6-3.2-1.8-6.7-2.7-3.5-1-11.6-3-17.9-4.4-6.3-1.4-17.6-3.5-25-4.6-10.1-1.5-20.1-2.1-40-2.3-18.8-0.3-29.7 0-37.5 1zm-325 309.5c-3.3 0.4-10.1 2.2-15 4-4.9 1.7-13.9 5.5-20 8.4-6.1 2.8-15.7 8.3-21.4 12.1-5.8 3.9-14.6 10.7-19.5 15.1-5 4.5-11.6 11-14.6 14.5-3 3.5-7.1 8.4-9.1 10.9-1.9 2.5-6.3 9-9.8 14.5-3.5 5.5-9.4 16.3-13.1 24-3.7 7.7-8.9 19.4-11.5 26-2.6 6.6-8.7 23-13.5 36.5-4.8 13.5-10.9 29.7-13.5 36-2.6 6.3-7.1 16.2-10 22-3 5.8-7.7 13.9-10.4 18-2.7 4.1-7.5 10.5-10.5 14.2-3.1 3.8-8.4 9-11.9 11.8-3.4 2.7-9.7 6.8-13.9 9.2-4.3 2.4-7.6 4.8-7.4 5.3 0.1 0.5 3.2 1.8 6.7 2.7 3.5 1 11.6 3 17.9 4.4 6.3 1.4 17.6 3.4 25 4.5 8.8 1.4 21.5 2.2 36.5 2.6 14.7 0.4 27.3 0.1 35-0.6 6.6-0.7 17.5-2.3 24.2-3.7 6.8-1.3 18.3-4.4 25.5-6.7 7.3-2.4 18.7-7.1 25.3-10.5 6.6-3.3 15.4-8.3 19.5-11 4.1-2.6 11.6-8.2 16.5-12.4 4.9-4.1 12.2-10.8 16-14.9 3.9-4.1 9.2-10.1 11.7-13.4 2.5-3.3 7-9.8 10.1-14.5 3-4.7 7.8-12.8 10.5-18 2.8-5.2 6.9-14.1 9.1-19.8 2.3-5.6 5.4-14.4 7-19.4 1.7-5.1 4.1-13.8 5.5-19.3 1.4-5.5 3.2-13.4 4.1-17.5 0.9-4.1 2.2-12.2 3.1-18 0.8-5.8 2.1-17.7 2.9-26.5 0.8-8.8 1.5-22 1.5-29.3 0-11.3-0.2-13.1-1.5-12.7-0.8 0.3-1.5 1.5-1.5 2.7 0 1.3-0.7 6.6-1.6 11.8-0.9 5.2-3.2 15.6-5.1 23-1.9 7.4-4.9 17.8-6.7 23-1.9 5.2-5.2 13.8-7.6 19-2.3 5.2-6.8 14.2-10.1 20-3.3 5.8-8.9 14.5-12.4 19.5-3.5 5-10.4 13.2-15.2 18.4-4.8 5.2-12.9 12.8-17.8 17-4.9 4.1-13.7 10.6-19.5 14.4-5.8 3.8-16.4 9.7-23.5 13.2-7.1 3.4-17.3 7.9-22.5 9.8-5.2 2-14.2 4.9-20 6.6-5.8 1.7-16.4 4.2-23.5 5.6-7.1 1.4-13.1 2.5-13.3 2.3-0.2-0.2 0.2-5.9 0.8-12.8 0.6-6.9 2.5-19.3 4.1-27.5 1.7-8.2 5.3-21.6 8-29.8 2.7-8.1 7.1-19.3 9.8-24.9 2.7-5.7 7.8-15 11.3-20.8 3.4-5.8 10.1-15.4 14.8-21.4 4.7-6 13.4-15.6 19.5-21.5 6.1-5.8 15.3-13.8 20.5-17.7 5.2-3.9 12.4-8.9 16-11.1 3.6-2.1 10.4-6 15.2-8.6 6.4-3.4 8.8-4.3 8.8-3.2 0 0.8-1.3 6.6-2.9 12.7-1.6 6.2-4.8 16.7-7.2 23.3-2.3 6.6-6.3 17-9 23-2.6 6-7 15-9.7 20-2.7 5-7.3 12.8-10.2 17.5-2.9 4.7-8.3 12.5-12 17.5-3.7 5-9.5 12-12.9 15.7-3.3 3.8-6.1 7.3-6.1 7.8 0 0.5 0.9 1 2 1 1.1 0 5.3-1.7 9.2-3.8 4-2 10.4-5.9 14.3-8.7 3.9-2.7 12.6-10.3 19.4-16.9 6.8-6.7 15.1-15.7 18.6-20.1 3.4-4.4 8.7-11.8 11.8-16.5 3-4.7 7.8-12.8 10.5-18 2.8-5.2 7.2-14.2 9.7-20 2.5-5.8 6.3-15.9 8.4-22.5 2.1-6.6 5.1-17.4 6.5-24 1.5-6.6 2.9-13 3.1-14.1 0.5-1.8-0.4-2.6-5.7-4.9-3.5-1.6-10.3-3.4-15.3-4.1-4.9-0.8-14.2-1.3-20.5-1.3-6.3 0.1-14.2 0.5-17.5 0.9z"/>
	</g>
</svg>